<?xml version="1.0" encoding="utf-8"?>
<!-- Generator: Adobe Illustrator 16.0.0, SVG Export Plug-In . SVG Version: 6.00 Build 0)  -->
<!DOCTYPE svg PUBLIC "-//W3C//DTD SVG 1.1//EN" "http://www.w3.org/Graphics/SVG/1.1/DTD/svg11.dtd">
<svg version="1.1" id="Layer_2" xmlns="http://www.w3.org/2000/svg" xmlns:xlink="http://www.w3.org/1999/xlink" x="0px" y="0px"
	 width="6441.676px" height="1024px" viewBox="0 0 6441.676 1024" enable-background="new 0 0 6441.676 1024" xml:space="preserve">
<g>
	<path fill="#51B5FF" d="M497.808,959.59C497.805,959.59,497.811,959.59,497.808,959.59c-39.236,0-76.125-15.281-103.869-43.025
		L98.829,621.459c-57.273-57.273-57.273-150.466,0-207.737l295.108-295.109c27.745-27.744,64.634-43.024,103.869-43.024
		s76.125,15.279,103.868,43.024l295.108,295.109c57.271,57.272,57.271,150.464,0,207.738L601.676,916.564
		C573.934,944.309,537.043,959.59,497.808,959.59z M497.808,109.182c-30.265,0-58.715,11.786-80.115,33.185l-295.108,295.11
		c-44.175,44.173-44.175,116.052,0.001,160.228l295.107,295.109c21.399,21.397,49.852,33.182,80.115,33.182
		s58.715-11.784,80.113-33.182l295.111-295.109c44.174-44.175,44.174-116.052,0-160.229l-295.11-295.108
		C556.523,120.968,528.072,109.182,497.808,109.182z"/>
	<g>
		<path fill="#51B5FF" d="M382.231,359.021c34.057,0,60.021,14.3,77.887,42.896c17.861,28.598,26.797,67.123,26.797,115.576
			c0,48.583-8.936,87.173-26.797,115.771c-17.866,28.599-43.829,42.894-77.887,42.894c-33.933,0-59.862-14.297-77.79-42.894
			c-17.932-28.597-26.895-67.187-26.895-115.771c0-48.454,8.963-86.978,26.895-115.576
			C322.37,373.32,348.298,359.021,382.231,359.021z M323.798,581.447L427.141,419.34c-6.544-11.941-13.631-20-21.266-24.173
			c-7.632-4.175-15.555-6.263-23.765-6.263c-21.425,0-37.718,11.919-48.879,35.753c-11.165,23.837-16.743,54.066-16.743,90.684
			c0,8.353,0.256,17.347,0.769,26.982C317.77,551.961,319.95,565.001,323.798,581.447z M440.079,455.03L337.473,618.128
			c5.519,9.383,11.87,16.42,19.055,21.11c7.188,4.693,15.208,7.036,24.066,7.036c24.381,0,41.709-13.654,51.975-40.967
			c10.264-27.31,15.401-57.61,15.401-90.9C447.973,493.847,445.338,474.052,440.079,455.03z"/>
		<path fill="#51B5FF" d="M610.298,637.215V406.444c-10.795,8.575-21.276,15.863-31.423,21.875
			c-10.154,6.014-24.101,12.155-41.835,18.42v-32.388c28.147-11.953,52.565-27.439,73.259-46.462h35.86v269.325h71.908v29.883
			H537.041v-29.883h73.257L610.298,637.215L610.298,637.215z"/>
	</g>
</g>
<g>
	<path fill="#51B5FF" d="M1434.844,324.273v262.094c0,42.136-12.877,74.353-38.636,96.658
		c-25.758,22.307-59.349,33.458-100.775,33.458c-40.894,0-73.999-11.193-99.313-33.591c-25.318-22.393-37.974-54.568-37.974-96.525
		V324.273h31.867v261.903c0,32.902,9.734,58.334,29.21,76.292c19.473,17.957,44.879,26.933,76.213,26.933
		c31.865,0,57.796-8.934,77.805-26.801c20.003-17.866,30.006-43.343,30.006-76.424V324.273H1434.844z"/>
	<path fill="#51B5FF" d="M1814.045,710.908h-31.601l-219.606-332.463l-1.594,0.265v332.198h-31.865V324.273h31.865l219.606,331.933
		l1.594-0.268V324.273h31.601V710.908L1814.045,710.908z"/>
	<path fill="#51B5FF" d="M2133.23,523.697h-186.147v160.125h213.234v27.086h-244.833V324.273h243.505v27.084h-211.906v145.255
		h186.148L2133.23,523.697L2133.23,523.697z"/>
	<path fill="#51B5FF" d="M2495.171,590.085l0.532,1.592c-3.364,38.771-17.174,69.267-41.424,91.482
		c-24.258,22.218-56.74,33.324-97.454,33.324c-43.02,0-77.72-15.532-104.095-46.603c-26.381-31.069-39.567-71.299-39.567-120.69
		v-62.935c0-49.213,13.186-89.444,39.567-120.691c26.375-31.243,61.075-46.869,104.095-46.869c41.066,0,73.641,10.887,97.719,32.662
		c24.073,21.775,37.795,52.404,41.159,91.88l-0.532,1.593h-29.741c-4.25-32.041-15.269-56.562-33.061-73.557
		c-17.792-16.996-42.978-25.492-75.547-25.492c-33.817,0-60.944,13.091-81.393,39.272c-20.446,26.181-30.67,59.702-30.67,100.562
		v63.417c0,41.396,10.224,75.142,30.67,101.229c20.449,26.091,47.575,39.138,81.393,39.138c32.569,0,57.794-8.3,75.679-24.897
		c17.879-16.596,28.854-41.398,32.928-74.418H2495.171L2495.171,590.085z"/>
	<path fill="#51B5FF" d="M2785.149,603.096H2608.03l-39.833,107.812h-32.928l146.847-386.635h30.009l145.784,386.635h-32.928
		L2785.149,603.096z M2618.651,574.682h156.143l-77.009-209.249h-1.592L2618.651,574.682z"/>
	<path fill="#51B5FF" d="M3049.367,710.908V324.273h112.327c47.267,0,86.302,15.758,117.104,47.268
		c30.804,31.512,46.206,71.962,46.206,121.355v49.657c0,49.569-15.403,90.021-46.206,121.354
		c-30.804,31.334-69.837,47.002-117.104,47.002H3049.367z M3080.966,351.357v332.465h80.728c38.238,0,69.706-13.352,94.402-40.062
		c24.697-26.715,37.043-60.501,37.043-101.359v-50.416c0-40.33-12.395-73.846-37.178-100.558
		c-24.786-26.713-56.208-40.069-94.268-40.069H3080.966L3080.966,351.357z"/>
	<path fill="#51B5FF" d="M3608.344,603.096h-177.12l-39.833,107.812h-32.928l146.849-386.635h30.007l145.785,386.635h-32.926
		L3608.344,603.096z M3441.844,574.682h156.143l-77.011-209.249h-1.59L3441.844,574.682z"/>
	<path fill="#51B5FF" d="M3965.238,351.357h-133.041v359.551h-31.864V351.357h-133.04v-27.084h297.944L3965.238,351.357
		L3965.238,351.357z"/>
	<path fill="#51B5FF" d="M4214.849,603.096H4037.73l-39.83,107.812h-32.929l146.847-386.635h30.006l145.785,386.635h-32.928
		L4214.849,603.096z M4048.352,574.682h156.14l-77.009-209.249h-1.592L4048.352,574.682z"/>
	<path fill="#51B5FF" d="M4510.667,550.252v160.655h-31.601V324.273h133.04c40.537,0,71.917,10.314,94.136,30.936
		c22.217,20.625,33.326,47.931,33.326,81.922c0,34.346-11.109,61.785-33.326,82.318c-22.219,20.539-53.597,30.806-94.136,30.806
		h-101.439V550.252z M4510.667,523.166h101.439c31.864,0,55.808-8.099,71.83-24.296c16.019-16.199,24.032-36.6,24.032-61.209
		c0-24.782-7.967-45.362-23.899-61.739c-15.933-16.373-39.922-24.564-71.963-24.564h-101.439V523.166z"/>
	<path fill="#51B5FF" d="M5097.791,549.19c0,49.921-13.675,90.288-41.026,121.089c-27.35,30.805-64.042,46.204-110.067,46.204
		c-45.322,0-81.482-15.399-108.476-46.204c-26.998-30.802-40.495-71.168-40.495-121.089v-62.935
		c0-49.744,13.453-90.108,40.362-121.09c26.906-30.979,63.021-46.47,108.343-46.47c46.025,0,82.76,15.493,110.2,46.47
		c27.438,30.981,41.159,71.345,41.159,121.09V549.19z M5066.191,485.94c0-41.839-10.58-75.527-31.734-101.061
		c-21.156-25.533-50.498-38.3-88.027-38.3c-36.825,0-65.504,12.767-86.038,38.3c-20.539,25.534-30.805,59.221-30.805,101.061v63.566
		c0,42.197,10.312,76.061,30.938,101.597c20.621,25.532,49.346,38.298,86.171,38.298c37.706,0,67.049-12.724,88.027-38.166
		c20.98-25.442,31.469-59.354,31.469-101.729V485.94z"/>
	<path fill="#51B5FF" d="M5212.242,536.179v174.729h-31.601v-386.37h130.915c41.426,0,73.199,9.074,95.332,27.219
		c22.127,18.148,33.193,44.657,33.193,79.532c0,20.539-5.936,38.902-17.795,55.102c-11.859,16.198-28.592,28.015-50.186,35.45
		c23.898,6.021,41.112,16.773,51.647,32.264c10.532,15.494,15.798,34.919,15.798,58.288v36.379c0,12.04,1.416,22.836,4.25,32.397
		c2.83,9.56,7.521,17.353,14.074,23.367v6.375h-32.396c-6.55-6.375-11.152-15.311-13.809-26.821
		c-2.654-11.505-3.981-23.456-3.981-35.848v-35.318c0-23.722-7.659-42.44-22.971-56.163c-15.315-13.718-36.69-20.58-64.129-20.58
		h-108.343V536.179z M5212.242,509.093h95.332c34.873,0,60.367-7.036,76.476-21.111c16.107-14.075,24.167-33.062,24.167-56.96
		c0-25.493-8.013-45.099-24.032-58.82c-16.027-13.717-40.23-20.58-72.628-20.58h-99.312v157.471H5212.242z"/>
	<path fill="#51B5FF" d="M5777.325,351.357h-133.039v359.551h-31.866V351.357h-133.038v-27.084h297.943V351.357L5777.325,351.357z"
		/>
	<path fill="#51B5FF" d="M6026.94,603.096h-177.119l-39.834,107.812h-32.929l146.849-386.635h30.007l145.783,386.635h-32.926
		L6026.94,603.096z M5860.44,574.682h156.143l-77.009-209.249h-1.593L5860.44,574.682z"/>
	<path fill="#51B5FF" d="M6190.78,683.822h191.195v27.086h-223.061V324.273h31.866L6190.78,683.822L6190.78,683.822z"/>
</g>
</svg>
